<?xml version="1.0" encoding="UTF-8"?>
<svg width="200" height="48" viewBox="0 0 200 48" fill="none" xmlns="http://www.w3.org/2000/svg">
  <g>
    <!-- Circle with two cutouts -->
    <path d="M24 44C35.0457 44 44 35.0457 44 24C44 12.9543 35.0457 4 24 4C12.9543 4 4 12.9543 4 24C4 35.0457 12.9543 44 24 44Z" fill="#FFC44D"/>
    <path d="M24 14C18.4772 14 14 18.4772 14 24C14 29.5228 18.4772 34 24 34C29.5228 34 34 29.5228 34 24C34 18.4772 29.5228 14 24 14ZM24 28C21.7909 28 20 26.2091 20 24C20 21.7909 21.7909 20 24 20C26.2091 20 28 21.7909 28 24C28 26.2091 26.2091 28 24 28Z" fill="black"/>
    
    <!-- Text "Oblako" -->
    <path d="M64 18V30H60V18H64ZM76 18C79.3137 18 82 20.6863 82 24C82 27.3137 79.3137 30 76 30H68V18H76ZM76 26C77.1046 26 78 25.1046 78 24C78 22.8954 77.1046 22 76 22H72V26H76Z" fill="#FFC44D"/>
    <path d="M92 18C95.3137 18 98 20.6863 98 24C98 27.3137 95.3137 30 92 30H84V18H92ZM92 26C93.1046 26 94 25.1046 94 24C94 22.8954 93.1046 22 92 22H88V26H92Z" fill="#FFC44D"/>
    <path d="M108 18C111.314 18 114 20.6863 114 24C114 27.3137 111.314 30 108 30H100V18H108ZM108 26C109.105 26 110 25.1046 110 24C110 22.8954 109.105 22 108 22H104V26H108Z" fill="#FFC44D"/>
    <path d="M124 18C127.314 18 130 20.6863 130 24C130 27.3137 127.314 30 124 30H116V18H124ZM124 26C125.105 26 126 25.1046 126 24C126 22.8954 125.105 22 124 22H120V26H124Z" fill="#FFC44D"/>
    <path d="M140 18C143.314 18 146 20.6863 146 24C146 27.3137 143.314 30 140 30H132V18H140ZM140 26C141.105 26 142 25.1046 142 24C142 22.8954 141.105 22 140 22H136V26H140Z" fill="#FFC44D"/>
  </g>
</svg>
